<?xml version="1.0" standalone="no"?>
<!DOCTYPE svg PUBLIC "-//W3C//DTD SVG 20010904//EN"
 "http://www.w3.org/TR/2001/REC-SVG-20010904/DTD/svg10.dtd">
<svg version="1.0" xmlns="http://www.w3.org/2000/svg"
 width="16.000000pt" height="16.000000pt" viewBox="0 0 16.000000 16.000000"
 preserveAspectRatio="xMidYMid meet">
<metadata>
Created by potrace 1.11, written by Peter Selinger 2001-2013
</metadata>
<g transform="translate(0.000000,16.000000) scale(0.003200,-0.003200)"
fill="#000000" stroke="none">
<path d="M670 2505 l0 -1165 135 0 135 0 0 306 c0 231 3 308 13 318 13 14 159
174 186 204 98 113 246 272 252 272 5 0 86 -100 181 -222 94 -123 226 -293
293 -378 66 -85 129 -167 140 -181 11 -15 71 -93 134 -173 l113 -146 165 0
164 0 -183 241 c-101 133 -299 395 -441 582 -143 188 -284 375 -314 414 -30
40 -53 77 -51 82 2 8 123 142 275 306 10 11 106 117 213 235 107 118 197 217
200 220 3 3 50 55 105 115 55 61 103 112 108 113 4 2 7 8 7 13 0 5 -68 9 -157
8 l-158 -1 -64 -71 c-36 -40 -92 -101 -125 -137 -34 -36 -88 -94 -120 -130
-33 -36 -89 -96 -125 -135 -37 -38 -116 -124 -176 -190 -60 -66 -135 -147
-166 -180 -30 -33 -87 -94 -125 -135 -38 -42 -125 -135 -194 -209 -68 -73
-130 -140 -137 -150 -10 -13 -12 117 -13 662 l0 677 -135 0 -135 0 0 -1165z"/>
<path d="M2660 3550 l0 -120 378 -2 377 -3 3 -1042 2 -1043 130 0 130 0 0
1045 0 1045 385 0 385 0 0 120 0 120 -895 0 -895 0 0 -120z"/>
</g>
</svg>
