<?xml version="1.0" encoding="utf-8"?>
<!-- Generator: Adobe Illustrator 21.1.0, SVG Export Plug-In . SVG Version: 6.00 Build 0)  -->
<svg version="1.1"
	 id="Ebene_1" xmlns:cc="http://creativecommons.org/ns#" xmlns:dc="http://purl.org/dc/elements/1.1/" xmlns:inkscape="http://www.inkscape.org/namespaces/inkscape" xmlns:rdf="http://www.w3.org/1999/02/22-rdf-syntax-ns#" xmlns:sodipodi="http://sodipodi.sourceforge.net/DTD/sodipodi-0.dtd" xmlns:svg="http://www.w3.org/2000/svg"
	 xmlns="http://www.w3.org/2000/svg" xmlns:xlink="http://www.w3.org/1999/xlink" x="0px" y="0px" viewBox="0 0 68.3 68.3"
	 style="enable-background:new 0 0 68.3 68.3;" xml:space="preserve">
<style type="text/css">
	.st0{fill:#FFFFFF;}
</style>
<g transform="translate(0,-952.36218)">
	<path class="st0" d="M18.7,952.4c-10,0-18,8-18,18v32c0,10,8,18,18,18h32c10,0,18-8,18-18v-32c0-10-8-18-18-18H18.7L18.7,952.4z
		 M54.7,962.4c2.2,0,4,1.8,4,4s-1.8,4-4,4s-4-1.8-4-4S52.5,962.4,54.7,962.4z M34.7,967.4c10.5,0,19,8.5,19,19s-8.5,19-19,19
		s-19-8.5-19-19S24.2,967.4,34.7,967.4z M34.7,971.4c-8.3,0-15,6.7-15,15s6.7,15,15,15s15-6.7,15-15C49.7,978.1,43,971.4,34.7,971.4
		z"/>
</g>
</svg>
